<?xml version="1.0" standalone="no"?>
<!DOCTYPE svg PUBLIC "-//W3C//DTD SVG 20010904//EN"
 "http://www.w3.org/TR/2001/REC-SVG-20010904/DTD/svg10.dtd">
<svg version="1.0" xmlns="http://www.w3.org/2000/svg"
 width="500.000000pt" height="500.000000pt" viewBox="0 0 500.000000 500.000000"
 preserveAspectRatio="xMidYMid meet">

<g transform="translate(0.000000,500.000000) scale(0.100000,-0.100000)"
fill="#000000" stroke="none">
<path d="M2145 4566 c-864 -151 -1531 -804 -1705 -1670 -42 -206 -44 -569 -5
-771 129 -667 543 -1213 1140 -1505 345 -169 647 -228 1073 -208 337 15 721
145 1017 343 472 317 800 819 901 1377 40 224 37 550 -7 769 -174 869 -856
1527 -1729 1669 -182 29 -503 27 -685 -4z m975 -151 c17 -20 -6 -48 -33 -41
-10 2 -30 1 -43 -4 -34 -13 -32 12 2 39 31 25 57 27 74 6z m-500 -9 c14 -18
10 -58 -7 -64 -7 -2 -18 8 -24 22 -10 20 -19 26 -46 26 -32 0 -33 -1 -33 -40
0 -40 15 -54 26 -25 4 8 12 15 20 15 10 0 14 -13 14 -43 0 -55 -8 -63 -37 -35
l-23 21 0 -41 c0 -42 0 -42 38 -42 32 0 41 5 51 26 13 30 35 27 39 -5 6 -42
-14 -51 -109 -51 -48 0 -100 4 -114 10 -25 9 -25 11 -11 32 19 26 22 138 6
169 -6 11 -8 24 -5 29 10 17 200 13 215 -4z m-367 -38 c26 -14 57 -68 57 -101
0 -71 -61 -121 -168 -135 -72 -10 -85 -7 -72 18 13 24 -14 157 -36 181 -19 21
-12 26 69 44 62 14 116 12 150 -7z m-449 -5 c5 -11 -5 -27 -30 -50 -20 -18
-38 -33 -40 -33 -2 0 -4 12 -4 28 0 54 58 98 74 55z m1260 -26 c13 -10 21 -40
31 -120 7 -59 18 -114 25 -122 27 -32 -62 -32 -108 1 -22 15 -22 17 -6 35 21
23 20 24 -30 38 -45 12 -59 7 -51 -19 8 -25 -7 -32 -44 -19 -35 12 -40 32 -12
45 28 13 121 133 121 155 0 23 46 26 74 6z m-1152 -48 c-2 -14 6 -49 17 -78
36 -91 25 -133 -46 -170 -29 -15 -94 -13 -115 3 -10 7 -31 43 -48 78 -16 36
-36 68 -45 71 -8 4 -15 11 -15 17 0 14 77 49 108 50 18 0 21 -4 17 -23 -8 -29
46 -151 70 -161 21 -8 65 18 65 39 0 33 -53 144 -71 150 -27 9 -24 22 9 39 38
22 58 16 54 -15z m1516 -106 c44 -33 65 -68 58 -98 -6 -22 -11 -26 -39 -23
-31 3 -32 4 -32 53 0 49 -1 50 -30 50 -43 0 -77 -53 -73 -115 4 -55 31 -65 36
-12 2 17 8 32 13 32 15 0 87 -38 94 -50 3 -5 -10 -26 -29 -46 -31 -32 -40 -36
-71 -31 -49 8 -102 43 -121 79 -32 61 -11 142 44 173 36 20 115 14 150 -12z
m-1869 -138 c46 -30 92 -55 102 -55 42 0 32 -25 -25 -64 -46 -31 -66 -33 -66
-6 0 25 -14 25 -56 -1 -39 -24 -42 -35 -14 -44 27 -9 25 -19 -7 -45 -32 -25
-49 -21 -45 9 6 37 -30 185 -47 199 -14 12 -13 16 12 38 15 13 36 24 45 24 9
0 55 -25 101 -55z m2109 -26 c45 -33 53 -54 23 -62 -26 -6 -111 -117 -111
-144 0 -31 -11 -29 -61 10 -50 38 -59 56 -31 64 27 7 112 115 112 142 0 29 19
26 68 -10z m181 -164 c42 -46 45 -65 11 -65 -21 0 -130 -96 -130 -115 0 -7 7
-18 15 -25 13 -11 22 -10 51 3 42 20 44 21 44 4 0 -7 -13 -26 -29 -41 -35 -34
-46 -29 -113 41 -68 73 -80 103 -40 103 21 0 122 90 122 110 0 17 8 30 20 30
4 0 26 -20 49 -45z m-2584 5 c0 -24 -2 -25 -53 -22 -41 2 -54 -1 -59 -13 -12
-33 12 -37 84 -16 87 26 98 26 123 1 42 -42 11 -121 -69 -171 -63 -41 -111
-35 -111 12 0 31 25 42 65 28 42 -15 68 -5 73 30 4 27 -16 27 -94 1 -68 -24
-97 -20 -120 15 -13 20 -14 30 -5 58 19 58 85 109 136 104 25 -2 30 -6 30 -27z
m1415 -470 l0 -149 153 -3 152 -3 3 -197 2 -198 -155 0 -155 0 0 -155 0 -155
-195 0 -195 0 0 155 0 155 -155 0 -155 0 0 200 0 200 155 0 155 0 0 150 0 150
195 0 195 0 0 -150z m-889 -689 l29 -29 0 -184 0 -184 -30 -22 c-32 -24 -48
-69 -42 -113 3 -17 46 -74 118 -154 63 -70 117 -138 120 -151 8 -33 54 -34 54
-1 0 38 -26 74 -131 188 -85 90 -102 115 -102 141 0 20 8 37 22 50 50 40 63
31 277 -184 111 -112 210 -219 220 -238 14 -26 19 -64 22 -152 l4 -118 -161 0
-161 0 0 55 c0 62 14 43 -248 317 -136 143 -132 126 -132 475 l0 292 26 20
c38 30 80 27 115 -8z m1488 14 c16 -8 31 -22 35 -30 3 -9 6 -142 6 -295 l0
-278 -27 -51 c-16 -28 -98 -126 -183 -217 -85 -91 -160 -175 -167 -187 -7 -12
-12 -41 -13 -64 l0 -43 -155 0 -155 0 0 112 c0 91 4 119 20 152 12 25 99 120
223 244 217 216 233 226 277 182 41 -41 28 -71 -81 -187 -91 -97 -138 -165
-139 -200 0 -8 12 -13 29 -13 23 0 30 5 35 28 3 15 53 79 116 147 113 123 130
155 116 211 -4 15 -20 38 -37 53 l-29 25 0 186 c0 194 2 205 45 228 27 15 51
15 84 -3z m-2504 -165 c41 -45 10 -120 -48 -120 -17 0 -39 7 -49 17 -23 20
-24 80 -1 105 22 24 75 23 98 -2z m3547 3 c23 -20 24 -80 1 -105 -20 -22 -70
-23 -95 -1 -23 20 -24 80 -1 105 20 22 70 23 95 1z m-2907 -1275 c24 -25 47
-58 51 -72 8 -35 -12 -59 -43 -51 -26 6 -27 6 -13 -30 7 -18 7 -33 0 -45 -31
-57 -95 -43 -185 42 -67 63 -77 78 -48 78 22 0 123 106 123 129 0 10 3 21 6
24 11 11 63 -25 109 -75z m2311 6 c9 -12 14 -33 12 -46 -3 -21 2 -24 44 -28
26 -3 50 -9 54 -13 8 -8 -40 -63 -68 -78 -13 -7 -26 -4 -47 12 -16 12 -34 18
-40 14 -15 -9 -4 -24 25 -35 33 -13 30 -22 -16 -64 -45 -41 -70 -46 -70 -15 0
26 -89 129 -112 129 -9 0 -19 4 -22 9 -14 22 90 115 151 136 44 15 70 9 89
-21z m-2133 -145 c50 -26 129 -79 139 -93 9 -14 -21 -68 -35 -63 -7 2 -11 17
-9 34 2 24 -3 34 -24 48 -27 18 -28 18 -51 -11 -30 -38 -29 -47 7 -39 36 8 38
-4 9 -51 -25 -41 -35 -43 -43 -9 -8 32 -20 32 -34 0 -17 -37 -15 -43 16 -59
23 -12 31 -12 52 0 14 7 28 13 33 14 15 0 6 -37 -12 -54 -18 -16 -21 -16 -53
-1 -18 9 -61 35 -95 58 -60 40 -80 67 -49 67 19 0 96 124 96 155 0 30 0 30 53
4z m1851 -111 c44 -32 88 -58 98 -58 32 0 19 -29 -25 -55 -52 -30 -77 -32 -77
-7 0 10 -3 21 -6 25 -5 4 -62 -23 -84 -40 -3 -3 6 -12 19 -22 l23 -18 -23 -21
c-12 -12 -31 -22 -42 -22 -15 0 -18 5 -14 26 7 40 -14 177 -31 196 -12 15 -13
20 -1 34 17 21 50 33 69 26 8 -3 51 -32 94 -64z m-1569 -42 l35 -15 0 -68 0
-68 24 30 c13 17 33 41 43 54 l20 25 47 -18 c47 -18 57 -35 32 -55 -16 -14
-39 -125 -34 -167 3 -26 0 -29 -22 -27 -34 4 -100 34 -100 46 0 5 6 15 14 21
12 10 39 96 32 103 -2 2 -15 -14 -30 -36 -40 -57 -61 -74 -85 -66 -17 5 -21
16 -23 78 l-3 72 -19 -35 c-11 -19 -20 -48 -20 -65 -1 -26 -4 -30 -26 -27 -14
1 -32 9 -40 17 -13 13 -12 17 8 31 33 23 85 131 78 160 -5 19 -2 24 14 24 11
0 36 -7 55 -14z m1294 -9 c17 -21 25 -74 12 -81 -6 -4 -19 6 -29 23 -19 35
-52 42 -52 11 0 -32 41 -134 61 -152 10 -9 19 -19 19 -23 0 -10 -83 -45 -108
-45 -20 0 -23 4 -18 28 3 17 -5 53 -22 97 -33 82 -55 92 -60 28 -2 -24 -7 -43
-11 -43 -14 0 -31 26 -37 58 -7 36 0 41 120 83 94 32 109 34 125 16z m-318
-116 c22 -27 15 -51 -16 -51 -15 0 -32 11 -45 31 -24 33 -55 36 -55 5 0 -14
18 -26 68 -46 82 -34 97 -45 97 -77 0 -38 -16 -59 -60 -77 -78 -31 -175 -15
-186 30 -8 31 2 44 32 44 17 0 30 -9 42 -29 17 -31 35 -40 65 -33 12 2 17 11
15 25 -2 15 -18 26 -65 41 -94 32 -125 73 -90 119 39 51 162 63 198 18z m-331
1 c43 -7 45 -8 45 -41 0 -44 -15 -49 -37 -11 -12 20 -25 30 -41 30 -27 0 -37
-16 -37 -61 0 -34 14 -38 30 -9 18 34 30 22 30 -29 0 -55 -13 -73 -30 -41 -17
32 -31 23 -28 -17 3 -34 6 -38 34 -41 26 -3 36 3 54 28 26 36 43 28 38 -16
l-3 -29 -100 -3 c-55 -2 -110 0 -123 3 -21 5 -21 7 -6 30 12 18 15 42 12 97
-2 40 -7 81 -12 90 -6 12 -2 17 16 21 36 7 108 6 158 -1z m-291 -88 c47 -10
41 -37 -6 -29 -53 9 -63 13 -63 25 0 11 23 13 69 4z"/>
<path d="M2145 4351 c-10 -17 26 -181 40 -181 27 0 38 29 32 83 -8 68 -53 128
-72 98z"/>
<path d="M2971 4234 c-24 -31 -25 -29 12 -38 23 -6 27 -3 27 16 0 44 -15 52
-39 22z"/>
<path d="M1464 3978 c3 -13 6 -29 6 -35 0 -17 10 -16 35 3 20 15 20 15 -5 34
-33 26 -44 25 -36 -2z"/>
<path d="M1362 1248 c-16 -16 -15 -35 3 -42 17 -6 48 21 42 38 -5 16 -30 19
-45 4z"/>
<path d="M1290 1165 c-24 -25 -31 -38 -23 -46 18 -18 56 -6 73 23 13 25 13 29
-1 43 -13 14 -18 12 -49 -20z"/>
<path d="M3594 1245 c-8 -21 42 -86 61 -79 22 9 18 48 -8 72 -27 26 -45 28
-53 7z"/>
<path d="M3338 960 l4 -40 29 17 29 17 -28 23 c-15 12 -29 22 -32 23 -3 0 -4
-18 -2 -40z"/>
</g>
</svg>
