<?xml version="1.0" encoding="UTF-8"?>
<!DOCTYPE svg PUBLIC "-//W3C//DTD SVG 1.1//EN" "http://www.w3.org/Graphics/SVG/1.1/DTD/svg11.dtd">
<svg xmlns="http://www.w3.org/2000/svg" version="1.1" width="500px" height="500px" style="shape-rendering:geometricPrecision; text-rendering:geometricPrecision; image-rendering:optimizeQuality; fill-rule:evenodd; clip-rule:evenodd" xmlns:xlink="http://www.w3.org/1999/xlink">
<g><path style="opacity:1" fill="#053c9f" d="M -0.5,-0.5 C 166.167,-0.5 332.833,-0.5 499.5,-0.5C 499.5,166.167 499.5,332.833 499.5,499.5C 332.833,499.5 166.167,499.5 -0.5,499.5C -0.5,332.833 -0.5,166.167 -0.5,-0.5 Z"/></g>
<g><path style="opacity:1" fill="#068b43" d="M 223.5,40.5 C 299.841,34.4314 363.008,60.098 413,117.5C 462.849,183.954 472.516,255.954 442,333.5C 409.584,402.572 355.751,443.739 280.5,457C 187.485,466.739 116.318,432.239 67,353.5C 30.4481,284.163 30.4481,214.83 67,145.5C 102.73,86.2038 154.897,51.2038 223.5,40.5 Z"/></g>
<g><path style="opacity:1" fill="#ebc60e" d="M 306.5,56.5 C 310.029,55.8894 311.862,57.2227 312,60.5C 308.526,61.4544 305.026,61.9544 301.5,62C 302.762,59.724 304.429,57.8907 306.5,56.5 Z"/></g>
<g><path style="opacity:1" fill="#ecc60d" d="M 240.5,57.5 C 247.226,57.2049 253.892,57.5383 260.5,58.5C 261.833,60.8333 261.833,63.1667 260.5,65.5C 259.289,63.5781 257.956,61.7448 256.5,60C 254.559,59.2571 252.726,59.4238 251,60.5C 250.182,63.2272 250.348,65.8938 251.5,68.5C 252.833,67.5 254.167,66.5 255.5,65.5C 256.905,68.9844 256.739,72.3177 255,75.5C 254.059,73.9386 252.892,72.6053 251.5,71.5C 250.52,74.0865 250.187,76.7531 250.5,79.5C 253.187,79.6641 255.854,79.4974 258.5,79C 259.376,77.414 260.376,75.914 261.5,74.5C 262.971,77.3209 262.637,79.8209 260.5,82C 253.782,82.7948 247.116,82.6282 240.5,81.5C 241.83,73.4702 241.83,65.4702 240.5,57.5 Z"/></g>
<g><path style="opacity:1" fill="#f7c909" d="M 209.5,61.5 C 215.68,60.8295 221.514,61.8295 227,64.5C 232.105,71.3829 231.271,77.5496 224.5,83C 218.72,85.7837 212.72,86.617 206.5,85.5C 207.854,78.2689 206.52,71.6022 202.5,65.5C 204.482,63.4364 206.816,62.103 209.5,61.5 Z"/></g>
<g><path style="opacity:1" fill="#e9c50e" d="M 175.5,61.5 C 177.948,61.0847 179.281,62.0847 179.5,64.5C 177.529,66.8082 175.529,69.1415 173.5,71.5C 172.018,67.7267 172.684,64.3934 175.5,61.5 Z"/></g>
<g><path style="opacity:1" fill="#1f8f41" d="M 213.5,63.5 C 218.019,63.5148 220.519,65.8481 221,70.5C 221.667,73.8333 221.667,77.1667 221,80.5C 219.951,82.1066 218.451,82.7733 216.5,82.5C 214.855,76.2728 213.855,69.9395 213.5,63.5 Z"/></g>
<g><path style="opacity:1" fill="#f4c80a" d="M 299.5,64.5 C 303.493,64.2447 306.326,65.9114 308,69.5C 308.435,77.3242 309.602,84.9909 311.5,92.5C 307.022,92.5629 303.022,91.2295 299.5,88.5C 300.95,87.1502 301.617,85.4835 301.5,83.5C 298.211,82.6261 294.877,81.9595 291.5,81.5C 291.421,82.9305 291.754,84.2638 292.5,85.5C 289.597,86.9044 286.93,86.571 284.5,84.5C 291.067,78.9429 296.067,72.2763 299.5,64.5 Z"/></g>
<g><path style="opacity:1" fill="#f7c909" d="M 185.5,68.5 C 187.288,68.2148 188.955,68.5481 190.5,69.5C 190.069,70.2935 189.735,71.1268 189.5,72C 192.659,77.4655 194.159,83.2989 194,89.5C 191.284,94.2781 187.117,96.6115 181.5,96.5C 178.37,96.3518 175.87,95.0184 174,92.5C 172.667,89.1667 171.333,85.8333 170,82.5C 168.649,80.981 167.149,79.6477 165.5,78.5C 169.059,75.7188 173.059,74.0521 177.5,73.5C 177.745,80.4837 180.078,86.6504 184.5,92C 188.747,93.0415 191.08,91.3749 191.5,87C 190.428,80.9107 187.762,75.744 183.5,71.5C 184.193,70.4822 184.859,69.4822 185.5,68.5 Z"/></g>
<g><path style="opacity:1" fill="#25913f" d="M 298.5,72.5 C 300.369,74.6353 301.036,77.3019 300.5,80.5C 298.173,80.7529 296.173,80.0863 294.5,78.5C 296.278,76.736 297.611,74.736 298.5,72.5 Z"/></g>
<g><path style="opacity:1" fill="#f6c809" d="M 329.5,78.5 C 336.96,77.8161 342.793,80.4828 347,86.5C 348.67,93.1798 346.67,94.8465 341,91.5C 340.502,89.4731 340.669,87.4731 341.5,85.5C 340.378,81.4031 338.044,80.5698 334.5,83C 330.518,88.1142 329.518,93.7809 331.5,100C 332.449,100.617 333.282,100.451 334,99.5C 335.142,97.2235 335.642,94.8901 335.5,92.5C 339.03,93.5147 342.197,95.1814 345,97.5C 343.362,99.8546 341.529,102.355 339.5,105C 331.793,105.395 325.96,102.228 322,95.5C 320.16,87.8507 322.66,82.184 329.5,78.5 Z"/></g>
<g><path style="opacity:1" fill="#f4c80a" d="M 143.5,89.5 C 146.016,89.7553 148.35,90.5886 150.5,92C 155.43,96.4651 161.097,99.2984 167.5,100.5C 167.607,102.903 166.607,104.736 164.5,106C 162.182,107.993 159.516,109.159 156.5,109.5C 156.769,107.571 156.269,105.905 155,104.5C 152.187,106.15 149.687,108.15 147.5,110.5C 148.605,111.892 149.939,113.059 151.5,114C 149.924,116.077 147.924,117.577 145.5,118.5C 144.975,109.903 142.975,101.737 139.5,94C 140.344,91.9933 141.677,90.4933 143.5,89.5 Z"/></g>
<g><path style="opacity:1" fill="#f7c909" d="M 359.5,94.5 C 364.089,95.5799 367.756,98.0799 370.5,102C 369.377,103.044 368.044,103.71 366.5,104C 363.667,107.5 360.833,111 358,114.5C 357.506,116.134 357.34,117.801 357.5,119.5C 352.892,118.394 349.226,115.894 346.5,112C 351.975,109.192 356.141,105.025 359,99.5C 359.494,97.8659 359.66,96.1992 359.5,94.5 Z"/></g>
<g><path style="opacity:1" fill="#33933d" d="M 144.5,98.5 C 147.274,99.7226 149.941,101.223 152.5,103C 150.759,104.62 148.925,106.12 147,107.5C 146.261,104.454 145.428,101.454 144.5,98.5 Z"/></g>
<g><path style="opacity:1" fill="#e00332" d="M 241.5,104.5 C 304.271,104.285 350.437,131.618 380,186.5C 404.288,243.423 397.288,296.09 359,344.5C 321.966,384.18 276.466,400.013 222.5,392C 170.156,380.654 133.989,350.154 114,300.5C 93.9603,237.822 107.794,183.989 155.5,139C 180.536,118.379 209.202,106.879 241.5,104.5 Z"/></g>
<g><path style="opacity:1" fill="#f8c909" d="M 378.5,109.5 C 382.478,111.478 385.478,114.478 387.5,118.5C 381.42,121.744 376.42,126.244 372.5,132C 372.759,133.261 373.426,134.261 374.5,135C 377.17,135.543 379.67,135.043 382,133.5C 383.257,133.85 383.591,134.517 383,135.5C 381.289,138.58 378.789,139.746 375.5,139C 371.342,135.543 367.509,131.709 364,127.5C 363.517,126.552 363.351,125.552 363.5,124.5C 365.308,124.509 366.975,124.009 368.5,123C 371.667,119.833 374.833,116.667 378,113.5C 378.49,112.207 378.657,110.873 378.5,109.5 Z"/></g>
<g><path style="opacity:1" fill="#f5c80a" d="M 119.5,110.5 C 121.591,110.318 123.591,110.652 125.5,111.5C 126.614,112.723 126.781,114.056 126,115.5C 122.575,116.095 119.075,116.262 115.5,116C 113.606,117.079 113.273,118.413 114.5,120C 121.042,118.495 127.709,117.829 134.5,118C 138.216,121.542 138.382,125.375 135,129.5C 131.545,134.139 127.045,137.139 121.5,138.5C 117.733,137.59 116.733,135.424 118.5,132C 122.484,132.186 126.484,132.186 130.5,132C 133.493,128.811 132.826,126.978 128.5,126.5C 124.211,127.708 119.878,128.708 115.5,129.5C 109.845,129.118 108.011,126.118 110,120.5C 112.022,115.98 115.189,112.647 119.5,110.5 Z"/></g>
<g><path style="opacity:1" fill="#fedd32" d="M 267.5,175.5 C 277.319,176.494 287.319,176.827 297.5,176.5C 297.5,189.167 297.5,201.833 297.5,214.5C 287.319,214.173 277.319,214.506 267.5,215.5C 267.5,225.5 267.5,235.5 267.5,245.5C 254.5,245.5 241.5,245.5 228.5,245.5C 228.5,235.5 228.5,225.5 228.5,215.5C 218.167,215.5 207.833,215.5 197.5,215.5C 197.5,202.5 197.5,189.5 197.5,176.5C 207.833,176.5 218.167,176.5 228.5,176.5C 228.5,166.167 228.5,155.833 228.5,145.5C 241.5,145.5 254.5,145.5 267.5,145.5C 267.5,155.5 267.5,165.5 267.5,175.5 Z"/></g>
<g><path style="opacity:1" fill="#f59831" d="M 267.5,175.5 C 277.833,175.5 288.167,175.5 298.5,175.5C 298.5,188.833 298.5,202.167 298.5,215.5C 288.167,215.5 277.833,215.5 267.5,215.5C 277.319,214.506 287.319,214.173 297.5,214.5C 297.5,201.833 297.5,189.167 297.5,176.5C 287.319,176.827 277.319,176.494 267.5,175.5 Z"/></g>
<g><path style="opacity:1" fill="#fedb32" d="M 320.5,226.5 C 324.923,226.357 328.423,228.024 331,231.5C 331.667,249.833 331.667,268.167 331,286.5C 330.303,290.928 328.637,294.928 326,298.5C 315.333,309.833 304.667,321.167 294,332.5C 292.646,336.363 292.146,340.363 292.5,344.5C 282.167,344.5 271.833,344.5 261.5,344.5C 261.334,336.826 261.5,329.159 262,321.5C 262.471,319.754 263.138,318.087 264,316.5C 277.137,302.362 290.637,288.529 304.5,275C 308.78,272.523 312.28,273.356 315,277.5C 315.667,279.5 315.667,281.5 315,283.5C 308,291.167 301,298.833 294,306.5C 292.241,309.608 291.408,312.941 291.5,316.5C 293.5,316.5 295.5,316.5 297.5,316.5C 297.46,313.575 298.293,310.909 300,308.5C 307.373,300.796 314.373,292.796 321,284.5C 322.579,278.001 320.579,273.001 315,269.5C 314.333,256.833 314.333,244.167 315,231.5C 316.406,229.256 318.239,227.59 320.5,226.5 Z"/></g>
<g><path style="opacity:1" fill="#fedb32" d="M 234.5,343.5 C 224.167,343.5 213.833,343.5 203.5,343.5C 203.806,340.615 203.473,337.948 202.5,335.5C 202.291,334.078 201.791,332.745 201,331.5C 190.333,320.167 179.667,308.833 169,297.5C 167.092,294.785 165.759,291.785 165,288.5C 164.333,269.5 164.333,250.5 165,231.5C 167.983,226.432 172.149,225.265 177.5,228C 179.049,229.214 180.215,230.714 181,232.5C 181.833,244.847 181.666,257.18 180.5,269.5C 172.827,274.693 171.661,281.026 177,288.5C 182.769,295.025 188.769,301.358 195,307.5C 197.287,310.072 198.453,313.072 198.5,316.5C 200.5,316.5 202.5,316.5 204.5,316.5C 204.283,312.015 202.783,308.015 200,304.5C 194.032,297.531 187.699,290.864 181,284.5C 179.182,275.315 182.682,272.148 191.5,275C 204.667,288.5 217.833,302 231,315.5C 232.275,317.717 233.275,320.051 234,322.5C 234.5,329.492 234.666,336.492 234.5,343.5 Z"/></g>
<g><path style="opacity:1" fill="#f7fbf9" d="M 69.5,242.5 C 77.379,242.216 80.2123,245.883 78,253.5C 73.5216,257.731 69.5216,257.398 66,252.5C 64.5812,248.082 65.7478,244.749 69.5,242.5 Z"/></g>
<g><path style="opacity:1" fill="#f7fbf9" d="M 424.5,242.5 C 432.379,242.216 435.212,245.883 433,253.5C 428.522,257.731 424.522,257.398 421,252.5C 419.581,248.082 420.748,244.749 424.5,242.5 Z"/></g>
<g><path style="opacity:1" fill="#f6a231" d="M 202.5,335.5 C 203.473,337.948 203.806,340.615 203.5,343.5C 213.833,343.5 224.167,343.5 234.5,343.5C 224.013,344.494 213.346,344.828 202.5,344.5C 202.5,341.5 202.5,338.5 202.5,335.5 Z"/></g>
<g><path style="opacity:1" fill="#f5c80a" d="M 130.5,364.5 C 137.371,367.201 142.538,371.868 146,378.5C 146.72,380.112 146.554,381.612 145.5,383C 142.764,383.422 140.098,383.422 137.5,383C 140.194,385.653 141.027,388.82 140,392.5C 135.847,395.108 131.68,394.941 127.5,392C 122.507,388.85 118.84,384.683 116.5,379.5C 117.552,379.649 118.552,379.483 119.5,379C 122.667,375.833 125.833,372.667 129,369.5C 130.009,367.975 130.509,366.308 130.5,364.5 Z"/></g>
<g><path style="opacity:1" fill="#f8c909" d="M 363.5,368.5 C 371.016,367.375 374.016,370.375 372.5,377.5C 375.602,379.183 378.936,379.849 382.5,379.5C 381.315,383.692 378.649,386.692 374.5,388.5C 372.657,385.578 369.99,384.245 366.5,384.5C 366.78,388.113 368.78,390.113 372.5,390.5C 370.12,393.881 367.12,396.547 363.5,398.5C 360.125,391.43 355.125,385.763 348.5,381.5C 352.657,375.996 357.657,371.663 363.5,368.5 Z"/></g>
<g><path style="opacity:1" fill="#26913f" d="M 137.5,372.5 C 139.484,372.484 140.484,373.484 140.5,375.5C 139.143,379.909 137.143,380.409 134.5,377C 135.315,375.357 136.315,373.857 137.5,372.5 Z"/></g>
<g><path style="opacity:1" fill="#2b913f" d="M 358.5,373.5 C 363.279,373.222 366.279,375.388 367.5,380C 366.937,382.251 365.603,383.251 363.5,383C 361.667,381.167 359.833,379.333 358,377.5C 357.421,376.072 357.588,374.738 358.5,373.5 Z"/></g>
<g><path style="opacity:1" fill="#1e8f40" d="M 130.5,379.5 C 133.121,379.477 134.455,380.811 134.5,383.5C 133.549,386.285 131.716,388.285 129,389.5C 127.378,389.046 126.212,388.046 125.5,386.5C 127.422,384.313 129.088,381.98 130.5,379.5 Z"/></g>
<g><path style="opacity:1" fill="#f5c809" d="M 153.5,384.5 C 160.447,386.39 166.614,389.724 172,394.5C 172.558,397.054 171.725,399.054 169.5,400.5C 167.17,390.144 163.17,389.311 157.5,398C 159.458,399.579 161.458,399.412 163.5,397.5C 163.654,400.885 162.321,403.885 159.5,406.5C 158.893,399.96 157.06,399.293 154,404.5C 152.958,407.804 154.125,409.971 157.5,411C 159.783,411.291 161.95,410.791 164,409.5C 165.479,410.873 165.312,412.373 163.5,414C 155.166,412.829 148.166,408.996 142.5,402.5C 146.229,400.401 149.062,397.401 151,393.5C 152.908,390.794 153.741,387.794 153.5,384.5 Z"/></g>
<g><path style="opacity:1" fill="#f7c909" d="M 330.5,390.5 C 332.989,390.298 335.323,390.798 337.5,392C 343.005,396.855 349.005,400.855 355.5,404C 352.201,407.482 348.201,409.649 343.5,410.5C 343.62,404.798 341.62,403.965 337.5,408C 336.272,408.779 335.272,409.779 334.5,411C 336.298,412.093 337.132,413.593 337,415.5C 335.266,417.451 333.099,418.451 330.5,418.5C 331.883,410.015 330.883,401.848 327.5,394C 328.071,392.401 329.071,391.234 330.5,390.5 Z"/></g>
<g><path style="opacity:1" fill="#f8c909" d="M 180.5,399.5 C 183.829,399.998 186.995,400.998 190,402.5C 190.333,406.833 190.667,411.167 191,415.5C 193.406,413.017 195.573,410.35 197.5,407.5C 201.397,406.066 204.897,406.733 208,409.5C 204.041,416.121 202.541,423.455 203.5,431.5C 198.956,431.393 194.956,429.893 191.5,427C 194.76,423.459 196.26,419.293 196,414.5C 193.167,418 190.333,421.5 187.5,425C 185.633,425.711 184.133,425.211 183,423.5C 182.667,418.833 182.333,414.167 182,409.5C 178.722,413.012 177.556,417.012 178.5,421.5C 175.812,422.797 173.312,422.464 171,420.5C 174.65,416.255 177.65,411.255 180,405.5C 180.495,403.527 180.662,401.527 180.5,399.5 Z"/></g>
<g><path style="opacity:1" fill="#27913e" d="M 332.5,398.5 C 334.803,400.325 337.136,402.158 339.5,404C 337.833,405.167 336.167,406.333 334.5,407.5C 333.322,404.609 332.655,401.609 332.5,398.5 Z"/></g>
<g><path style="opacity:1" fill="#f3c80b" d="M 311.5,400.5 C 313.144,400.286 314.644,400.62 316,401.5C 317.341,404.022 318.174,406.689 318.5,409.5C 317.325,409.719 316.325,409.386 315.5,408.5C 314.564,404.673 312.397,403.34 309,404.5C 309.832,411.497 312.332,417.83 316.5,423.5C 313.161,427.058 309.161,428.391 304.5,427.5C 305.52,425.568 305.687,423.568 305,421.5C 303.778,417.39 302.278,413.39 300.5,409.5C 298.994,408.253 297.494,408.253 296,409.5C 296.846,419.798 295.346,420.131 291.5,410.5C 291.608,409.558 291.941,408.725 292.5,408C 298.922,405.446 305.255,402.946 311.5,400.5 Z"/></g>
<g><path style="opacity:1" fill="#f6c809" d="M 272.5,410.5 C 277.032,410.074 281.199,411.074 285,413.5C 285.986,415.925 285.319,417.591 283,418.5C 280.513,417.346 278.679,415.513 277.5,413C 275.833,412.333 274.167,412.333 272.5,413C 271.167,414.333 271.167,415.667 272.5,417C 278.116,419.032 283.449,421.532 288.5,424.5C 290.326,428.526 289.326,431.693 285.5,434C 279.575,436.517 273.575,436.85 267.5,435C 263.298,431.794 263.631,429.294 268.5,427.5C 269.442,427.608 270.275,427.941 271,428.5C 273.193,435.03 276.693,436.03 281.5,431.5C 281.023,430.522 280.357,429.689 279.5,429C 275.167,427.333 270.833,425.667 266.5,424C 264.078,421.997 263.245,419.497 264,416.5C 266.322,413.605 269.155,411.605 272.5,410.5 Z"/></g>
<g><path style="opacity:1" fill="#f4c80a" d="M 233.5,413.5 C 240.891,413.201 248.224,413.535 255.5,414.5C 256.671,422.843 255.338,423.343 251.5,416C 249.231,415.242 247.064,415.409 245,416.5C 244.182,419.227 244.348,421.894 245.5,424.5C 246.833,423.5 248.167,422.5 249.5,421.5C 250.833,424.5 250.833,427.5 249.5,430.5C 245.093,426.659 243.593,427.993 245,434.5C 249.285,436.548 252.451,435.548 254.5,431.5C 255.325,430.614 256.325,430.281 257.5,430.5C 257.682,432.591 257.348,434.591 256.5,436.5C 249.189,437.665 241.856,437.831 234.5,437C 233.216,435.703 233.383,434.536 235,433.5C 236.037,426.598 235.537,419.932 233.5,413.5 Z"/></g>
<g><path style="opacity:1" fill="#efc70b" d="M 215.5,421.5 C 218.879,421.888 222.212,422.555 225.5,423.5C 223.235,424.647 220.902,424.814 218.5,424C 216.881,423.764 215.881,422.931 215.5,421.5 Z"/></g>
</svg>
